<svg width="170.01" height="65.671" color-interpolation-filters="sRGB" preserveAspectRatio="xMidYMid" version="1.1"
     viewBox="0 0 170.01 65.671" xmlns="http://www.w3.org/2000/svg">
    <g class="iconlinesvg-g iconlinesvg" transform="translate(-.0035902 -.004846)" fill="#fff">
        <g transform="translate(0,6)">
            <rect x=".0035902" y="50.707" width="45.756" height="1.7463" stroke-width="1.1415"/>
            <rect x="124.26" y="50.707" width="45.756" height="1.7463" stroke-width="1.1415"/>
            <path d="m52.74 43.484v16.192h2.0575v-6.4193h2.901c0.88471 0 1.7077-0.10287 2.4278-0.30862 0.74069-0.20575 1.3785-0.51436 1.8929-0.92586 0.53494-0.41149 0.94643-0.92586 1.2345-1.5637 0.28804-0.61724 0.43207-1.3579 0.43207-2.2221 0-0.88471-0.14402-1.6254-0.43207-2.2426-0.28804-0.59666-0.69954-1.0905-1.2139-1.4608-0.51436-0.37034-1.1522-0.63781-1.8929-0.80241s-1.5637-0.2469-2.4484-0.2469zm4.7116 8.0858h-2.6541v-6.4398h2.6541c1.3991 0 2.4484 0.22632 3.1479 0.67896 0.67896 0.45264 1.0287 1.2756 1.0287 2.4278s-0.34977 1.9957-1.0287 2.5307c-0.67896 0.53494-1.7283 0.80241-3.1479 0.80241zm15.163 1.5225h-4.8556l0.76126-2.469c0.28804-0.90528 0.57609-1.8106 0.84356-2.7158 0.2469-0.88471 0.51436-1.8106 0.76126-2.757h0.10287c0.2469 0.94643 0.51436 1.8723 0.78184 2.757 0.26747 0.90528 0.53494 1.8106 0.84356 2.7158zm0.51436 1.646 1.5431 4.9379h2.1809l-5.4728-16.192h-2.3249l-5.4728 16.192h2.0986l1.5431-4.9379zm6.0284-11.254v16.192h1.9546v-8.4767c0-0.84356-0.04115-1.7077-0.0823-2.5512-0.06172-0.84356-0.12345-1.6871-0.18517-2.5101h0.0823l1.7694 3.3331 5.8638 10.205h2.1192v-16.192h-1.934v8.3739c0 0.84356 0.02057 1.7077 0.0823 2.5924 0.06172 0.88471 0.10287 1.7283 0.1646 2.5512h-0.10288l-1.7488-3.3537-5.8638-10.164zm15.966 0v16.192h9.5878v-1.7488h-7.5303v-5.8843h6.1518v-1.7488h-6.1518v-5.0819h7.2834v-1.7283zm13.024 0v16.192h9.1351v-1.7488h-7.0982v-14.443z"
                  stroke-width="2.0575"/>
        </g>
        <path transform="translate(138.03 39.275)"
              d="m12.35 0h-9.38v-27.62h8.74l0.29 2.39q1.69-1.17 4.26-2.07 2.56-0.9 5.48-0.9 5.36 0 7.8 2.56 2.45 2.56 2.45 7.93v17.71h-9.38v-16.96q0-2.33-0.99-3.32t-3.56-0.99q-1.51 0-3.08 0.7-1.58 0.7-2.63 1.75z"/>
        <path transform="translate(122.48 39.275)"
              d="m15.03-31.99h-10.19v-7.05h10.19zm-0.05 31.99h-9.39v-20.69h-4.07l0.81-6.93h12.65z"/>
        <path d="m103.52 5.7645-11.147 23.304c-0.32176 0.64084 0.48152 1.7228 1.1255 1.9979 0.64084 0.32266 1.949 0.19745 2.2245-0.44607l7.9369-16.923 11.409 21.524-31.491-0.0377 7.7627-14.956 1.8565 2.19c0.45819 0.55153 1.2386 0.64128 1.7897 0.1831 0.55108-0.45864 0.64084-1.2386 0.18265-1.7901l-4.7686-6.0072-12.891 24.496h44.085z"
              fill="#e78d1d" stroke-width="2.349"/>
        <path transform="translate(40.194 39.275)"
              d="m14.57 0.58q-4.02 0-6.88-1.28-2.85-1.28-4.37-4.22-1.51-2.95-1.51-7.9 0-5.01 1.74-8.42 1.75-3.41 4.81-5.19 3.06-1.77 7.02-1.77 2.16 0 3.88 0.46 1.72 0.47 3.23 1.4v-12.93h9.38v39.27h-8.1l-0.52-2.33q-1.69 1.46-3.79 2.18-2.1 0.73-4.89 0.73zm2.68-6.82q3.09 0 5.24-2.09v-11.19q-1.98-1.81-5.07-1.81-2.97 0-4.51 2.25-1.55 2.24-1.55 6.32 0 3.96 1.49 5.24 1.48 1.28 4.4 1.28z"/>
        <path transform="translate(-1.8064 39.275)"
              d="m11.6 0h-9.79l14.33-37.53h10.14l14.34 37.53h-9.79l-3.38-8.51h-12.53zm9.55-28.49-4.95 13.05h9.96z"/>
    </g>
</svg>
